<?xml version="1.0" encoding="UTF-8" standalone="no"?>

<svg
   width="44.351994mm"
   height="36.745819mm"
   viewBox="0 0 44.351994 36.745819"
   version="1.1"
   id="svg1"
   xml:space="preserve"
   inkscape:version="1.4 (86a8ad7, 2024-10-11)"
   sodipodi:docname="logo.svg"
   inkscape:export-filename="logo.png"
   inkscape:export-xdpi="96"
   inkscape:export-ydpi="96"
   xmlns:inkscape="http://www.inkscape.org/namespaces/inkscape"
   xmlns:sodipodi="http://sodipodi.sourceforge.net/DTD/sodipodi-0.dtd"
   xmlns="http://www.w3.org/2000/svg"
   xmlns:svg="http://www.w3.org/2000/svg"><sodipodi:namedview
     id="namedview1"
     pagecolor="#ffffff"
     bordercolor="#000000"
     borderopacity="0.25"
     inkscape:showpageshadow="2"
     inkscape:pageopacity="0.0"
     inkscape:pagecheckerboard="0"
     inkscape:deskcolor="#d1d1d1"
     inkscape:document-units="mm"
     inkscape:zoom="4"
     inkscape:cx="393.25"
     inkscape:cy="583.875"
     inkscape:window-width="1920"
     inkscape:window-height="1057"
     inkscape:window-x="-8"
     inkscape:window-y="-8"
     inkscape:window-maximized="1"
     inkscape:current-layer="g30"><inkscape:page
       x="0"
       y="0"
       width="44.351994"
       height="36.745819"
       id="page2"
       margin="0"
       bleed="0" /></sodipodi:namedview><defs
     id="defs1"><clipPath
       clipPathUnits="userSpaceOnUse"
       id="clipPath137"><path
         id="path138"
         style="fill:#ff0000;fill-opacity:1;fill-rule:nonzero;stroke:none"
         d="M 67.60929,69.326183 V 177.67775 h 149.0625 V 69.326183 Z m 25.974611,3.509771 c 0.99166,-0.0169 2.10057,0.80095 2.59375,2.65039 0.0146,0.0544 0.0272,0.10882 0.0449,0.16211 0.0354,0.10696 0.0854,0.20976 0.12696,0.31445 0.1337,0.33706 0.27097,0.66803 0.42578,0.99609 0.32501,0.68096 0.68827,1.3422 1.08398,1.98438 0.36402,0.57025 0.73632,1.13729 1.13281,1.68555 0.4255,0.56458 0.84372,1.13262 1.255859,1.70703 0.32085,0.44194 0.62866,0.89495 0.97657,1.3164 0.28652,0.32894 0.55969,0.66835 0.83593,1.00586 0.17238,0.20425 0.33936,0.42891 0.50782,0.62696 0.19789,0.19528 0.36888,0.41379 0.53125,0.63867 0.12985,0.15674 0.27278,0.3693 0.39062,0.56055 0.008,0.0148 0.0149,0.0304 0.0234,0.0449 0.006,0.009 0.01,0.02 0.0156,0.0293 0.0761,0.12329 0.1452,0.24517 0.21485,0.38282 0.003,0.008 0.006,0.0169 0.01,0.0254 -0.001,-0.003 0.002,0.006 0.004,0.01 0.0937,0.24034 0.13245,0.35219 0.20313,0.57227 0.0278,0.0892 0.0504,0.17882 0.0742,0.26953 1.10522,4.23311 -3.1959,5.34861 -4.277339,1.10937 -0.0128,-0.0506 -0.0248,-0.10069 -0.041,-0.15039 -0.0119,-0.0157 -0.0463,-0.0608 -0.0762,-0.10156 -0.58953,1.48729 -2.52906,1.32789 -2.93554,-1.05664 -0.0434,-0.25459 -0.0875,-0.50811 -0.13672,-0.76172 -0.0415,-0.22019 -0.0857,-0.4402 -0.12891,-0.66015 -0.0578,0.40763 -0.16345,0.75299 -0.30273,1.03711 0.53866,2.08726 -1.27958,3.03278 -2.50977,1.55859 -0.20387,0.30961 -0.46887,0.31878 -0.86133,-0.30859 -0.0671,1.1862 0.37993,3.54179 -1.12109,2.20507 -0.0211,-0.0188 -0.10201,-0.0927 -0.14258,-0.13086 -0.0102,-0.008 -0.0191,-0.0174 -0.0293,-0.0254 0.0288,0.0658 0.059,0.13049 0.0859,0.19727 0.10163,0.25867 0.1756,0.5255 0.23438,0.79687 0.0486,0.26718 0.0902,0.53521 0.12304,0.80469 0.005,0.0389 0.007,0.0783 0.0117,0.11719 0.38206,3.40909 -2.2396,4.44432 -3.62109,2.63672 -0.20752,0.69138 -0.64953,0.90029 -1.51563,0.21875 -0.22686,0.102 -0.57788,-0.0511 -1.125,-0.60547 -0.0512,-0.0518 -0.10308,-0.10252 -0.15429,-0.1543 -0.0784,-0.10136 -0.0206,-0.0283 -0.0664,-0.0879 1e-5,0.0496 -0.0694,-0.0687 -0.10938,-0.12695 -0.0408,-0.0402 -0.0824,-0.0802 -0.12304,-0.11914 -0.0627,-0.0658 -0.13679,-0.14347 -0.19141,-0.20508 0.009,0.008 0.0357,0.031 0.0274,0.0234 -0.0598,-0.059 -0.12586,-0.11304 -0.18165,-0.17578 -0.11011,-0.12393 -0.16614,-0.19258 -0.21679,-0.25196 -0.0416,-0.0357 -0.0953,-0.0818 -0.10156,-0.084 -0.17871,-0.16883 -0.26151,-0.24135 -0.48829,-0.47266 -0.15128,-0.16199 -0.30221,-0.32381 -0.43945,-0.49804 -0.0875,-0.0973 -0.0492,-0.0516 -0.21875,-0.26758 -0.0109,-0.0127 -0.0205,-0.027 -0.0312,-0.0391 -0.11637,-0.14211 -0.19174,-0.24743 -0.28906,-0.35742 -0.17149,-0.21777 -0.33587,-0.44176 -0.50391,-0.66211 -0.12181,-0.16588 -0.2046,-0.30093 -0.35937,-0.44531 -0.17926,-0.20402 -0.35243,-0.41265 -0.53321,-0.61523 v -0.002 c -1.45198,-1.62863 -1.33055,-3.17279 -0.49023,-3.90039 -0.0377,-0.15248 -0.0949,-0.29939 -0.12109,-0.45508 -0.5609,-3.33683 0.9999,-5.17919 2.71093,-5.16796 0.8688,0.006 1.77388,0.49255 2.46094,1.50195 0.2363,0.11769 0.47336,0.27937 0.70313,0.49023 v -0.002 c -0.40927,-0.91044 0.23288,-1.95063 1.6914,-1.93359 0.10759,0.001 0.23537,0.0316 0.35156,0.0449 0.21036,-0.21915 0.47798,-0.34628 0.76758,-0.36719 0.0427,-0.003 0.0854,-0.003 0.12891,-0.002 0.35621,0.0125 0.73027,0.20344 1.07031,0.54883 0.14602,-0.46983 0.56192,-0.78644 1.12695,-0.83789 -0.18356,-0.24089 -0.36508,-0.48331 -0.55078,-0.72266 -0.21266,-0.27403 -0.35168,-0.53663 -0.46093,-0.79102 -0.6481,-0.55627 -0.67106,-1.34523 -0.14844,-1.88867 -0.11089,-0.57531 0.18703,-1.12113 0.77734,-1.39648 -0.0113,-1.54088 0.87136,-2.42613 1.88086,-2.44336 z m 6.20899,16.06054 c 0.012,0.0213 0.0194,0.0414 0.0312,0.0586 0.0165,0.0242 0.0674,0.0949 0.0508,0.0723 -0.0228,-0.0332 -0.0312,-0.0518 -0.082,-0.13086 z m -14.61524,5.20313 c -0.0412,-0.0605 -0.0493,-0.0722 0.0527,0.0801 0.004,0.005 0.01,0.0107 0.0137,0.0156 -0.004,-0.006 -0.006,-0.01 -0.01,-0.0156 -0.0211,-0.0307 -0.041,-0.0571 -0.0566,-0.0801 z" /></clipPath></defs><g
     id="g1"
     inkscape:label="Elipse"
     transform="matrix(1.1105399,0,0,1.2195357,-98.802234,-162.07474)"
     inkscape:export-filename="logo_estatica.svg"
     inkscape:export-xdpi="96"
     inkscape:export-ydpi="96"><path
       id="path51"
       clip-path="url(#clipPath137)"
       style="fill:none;stroke:#9479f4;stroke-width:3.19958"
       inkscape:label="ElipseExterna"
       transform="matrix(0.2672425,0,0,0.27808835,71.00117,113.61969)"
       d="m 215.07225,123.50219 a 72.93132,52.57542 0 0 1 -72.93132,52.57542 72.93132,52.57542 0 0 1 -72.93132,-52.57542 72.93132,52.57542 0 0 1 72.93132,-52.575421 72.93132,52.57542 0 0 1 72.93132,52.575421 z" /></g><g
     inkscape:label="Camada 1"
     inkscape:groupmode="layer"
     id="layer1"
     transform="translate(-66.789869,-154.50262)"><g
       id="g57"
       transform="matrix(0.29383037,0,0,0.3226688,47.027454,132.14347)"
       inkscape:label="Carrinho">
	
	
	
	
	
	
	
	
	
	
	
	
	
	<rect
   x="87.5"
   y="28.511"
   class="st1"
   width="73.209999"
   height="38.459999"
   id="rect1"
   style="fill:none;stroke:#000000;stroke-width:0.803485;stroke-dasharray:none;stroke-opacity:1"
   transform="matrix(0.52079214,0,0,0.42486864,61.3395,73.616814)" /><path
   class="st0"
   d="M 160.71,27.011 H 87.5 c -0.829,0 -1.5,0.671 -1.5,1.5 v 38.46 c 0,0.829 0.671,1.5 1.5,1.5 h 73.21 c 0.829,0 1.5,-0.671 1.5,-1.5 v -38.46 c 0,-0.829 -0.671,-1.5 -1.5,-1.5 z m -1.5,38.46 H 89 v -35.46 h 70.21 z"
   id="path2"
   style="fill:#9479f4;fill-opacity:1;stroke:#9479f4;stroke-width:0.803485;stroke-dasharray:none;stroke-opacity:1"
   transform="matrix(0.52079215,0,0,0.42486865,61.3395,73.616814)" /><rect
   x="160.71001"
   y="44.201"
   class="st32"
   width="52.290001"
   height="22.77"
   id="rect4"
   style="fill:none;stroke:#000000;stroke-width:0.803485;stroke-dasharray:none;stroke-opacity:1"
   transform="matrix(0.52079214,0,0,0.42486864,61.3395,73.616814)" /><path
   class="st0"
   d="m 213,42.701 h -52.29 c -0.829,0 -1.5,0.671 -1.5,1.5 v 22.77 c 0,0.829 0.671,1.5 1.5,1.5 H 213 c 0.829,0 1.5,-0.671 1.5,-1.5 v -22.77 c 0,-0.829 -0.671,-1.5 -1.5,-1.5 z m -1.5,22.77 h -49.29 v -19.77 h 49.29 z"
   id="path6"
   style="fill:#9479f4;fill-opacity:1;stroke:#9479f4;stroke-width:0.803485;stroke-dasharray:none;stroke-opacity:1"
   transform="matrix(0.52079214,0,0,0.42486864,61.3395,73.616814)" /><circle
   class="st2"
   cx="133.392"
   cy="217.73199"
   r="21.759001"
   id="circle8"
   style="fill:none;stroke:#000000;stroke-width:0.803485;stroke-dasharray:none;stroke-opacity:1"
   transform="matrix(0.52079214,0,0,0.42486864,61.3395,73.616814)" /><path
   class="st0"
   d="m 133.392,194.473 c -12.825,0 -23.259,10.434 -23.259,23.259 0,12.825 10.434,23.259 23.259,23.259 12.825,0 23.259,-10.434 23.259,-23.259 0,-12.825 -10.435,-23.259 -23.259,-23.259 z m 0,43.518 c -11.171,0 -20.259,-9.088 -20.259,-20.259 0,-11.171 9.088,-20.259 20.259,-20.259 11.171,0 20.259,9.088 20.259,20.259 0,11.171 -9.088,20.259 -20.259,20.259 z"
   id="path10"
   style="fill:#9479f4;fill-opacity:1;stroke:#9479f4;stroke-width:0.803485;stroke-dasharray:none;stroke-opacity:1"
   transform="matrix(0.52079214,0,0,0.42486864,61.3395,73.616814)" /><path
   class="st22"
   d="m 133.392,208.831 c -4.916,0 -8.901,3.985 -8.901,8.901 0,4.916 3.985,8.901 8.901,8.901 4.916,0 8.901,-3.985 8.901,-8.901 0,-4.916 -3.986,-8.901 -8.901,-8.901 z"
   id="path12"
   style="fill:none;stroke:#000000;stroke-width:0.803485;stroke-dasharray:none;stroke-opacity:1"
   transform="matrix(0.52079214,0,0,0.42486864,61.3395,73.616814)" /><path
   class="st0"
   d="m 133.392,207.331 c -5.735,0 -10.401,4.666 -10.401,10.401 0,5.735 4.666,10.401 10.401,10.401 5.735,0 10.401,-4.666 10.401,-10.401 0,-5.735 -4.666,-10.401 -10.401,-10.401 z m 0,17.802 c -4.081,0 -7.401,-3.32 -7.401,-7.401 0,-4.081 3.32,-7.401 7.401,-7.401 4.081,0 7.401,3.32 7.401,7.401 0,4.081 -3.32,7.401 -7.401,7.401 z"
   id="path14"
   style="fill:#9479f4;fill-opacity:1;stroke:#9479f4;stroke-width:0.803485;stroke-dasharray:none;stroke-opacity:1"
   transform="matrix(0.52079214,0,0,0.42486864,61.3395,73.616814)" /><circle
   class="st2"
   cx="188.608"
   cy="217.73199"
   r="21.759001"
   id="circle16"
   style="fill:none;stroke:#000000;stroke-width:0.803485;stroke-dasharray:none;stroke-opacity:1"
   transform="matrix(0.52079214,0,0,0.42486864,61.3395,73.616814)" /><path
   class="st0"
   d="m 188.608,194.473 c -12.825,0 -23.259,10.434 -23.259,23.259 0,12.825 10.434,23.259 23.259,23.259 12.825,0 23.259,-10.434 23.259,-23.259 0,-12.825 -10.434,-23.259 -23.259,-23.259 z m 0,43.518 c -11.171,0 -20.259,-9.088 -20.259,-20.259 0,-11.171 9.088,-20.259 20.259,-20.259 11.171,0 20.259,9.088 20.259,20.259 0,11.171 -9.088,20.259 -20.259,20.259 z"
   id="path18"
   style="fill:#9479f4;fill-opacity:1;stroke:#9479f4;stroke-width:0.803485;stroke-dasharray:none;stroke-opacity:1"
   transform="matrix(0.52079214,0,0,0.42486864,61.3395,73.616814)"
   inkscape:label="path18" /><path
   class="st22"
   d="m 188.608,208.831 c -4.916,0 -8.901,3.985 -8.901,8.901 0,4.916 3.985,8.901 8.901,8.901 4.916,0 8.901,-3.985 8.901,-8.901 0.001,-4.916 -3.985,-8.901 -8.901,-8.901 z"
   id="path20"
   style="fill:none;stroke:#000000;stroke-width:0.803485;stroke-dasharray:none;stroke-opacity:1"
   transform="matrix(0.52079214,0,0,0.42486864,61.3395,73.616814)" /><path
   class="st0"
   d="m 188.608,207.331 c -5.735,0 -10.401,4.666 -10.401,10.401 0,5.735 4.666,10.401 10.401,10.401 5.735,0 10.401,-4.666 10.401,-10.401 0.001,-5.735 -4.665,-10.401 -10.401,-10.401 z m 0,17.802 c -4.081,0 -7.401,-3.32 -7.401,-7.401 0,-4.081 3.32,-7.401 7.401,-7.401 4.081,0 7.401,3.32 7.401,7.401 0.001,4.081 -3.319,7.401 -7.401,7.401 z"
   id="path22"
   style="fill:#9479f4;fill-opacity:1;stroke:#9479f4;stroke-width:0.803485;stroke-dasharray:none;stroke-opacity:1"
   transform="matrix(0.52079214,0,0,0.42486864,61.3395,73.616814)" /><path
   class="st23"
   d="M 235.986,66.973 H 77.896 l 25.01,98.95 h 105.33 c 2.922,0 5.511,-1.882 6.414,-4.661 L 242.4,75.799 c 1.414,-4.357 -1.833,-8.826 -6.414,-8.826 z"
   id="path24"
   style="fill:none;stroke:#000000;stroke-width:0.803485;stroke-dasharray:none;stroke-opacity:1"
   transform="matrix(0.52079214,0,0,0.42486864,61.3395,73.616814)" /><path
   class="st0"
   d="m 242.655,68.871 c -1.569,-2.159 -4,-3.398 -6.669,-3.398 H 77.896 c -0.462,0 -0.899,0.213 -1.184,0.579 -0.284,0.365 -0.384,0.84 -0.271,1.289 l 25.01,98.95 c 0.168,0.666 0.767,1.132 1.454,1.132 h 58.657 c 0.829,0 1.5,-0.671 1.5,-1.5 0,-0.829 -0.671,-1.5 -1.5,-1.5 H 104.073 L 79.821,68.473 h 156.164 c 1.698,0 3.244,0.788 4.242,2.161 0.998,1.373 1.27,3.087 0.746,4.702 l -27.751,85.463 c -0.704,2.168 -2.708,3.624 -4.987,3.624 h -31.768 c -47.35449,0 -13.405,0.671 -13.405,1.5 0,0.829 -34.27771,1.5 13.405,1.5 h 31.768 c 3.583,0 6.734,-2.289 7.84,-5.697 l 27.751,-85.463 c 0.825,-2.539 0.398,-5.233 -1.171,-7.392 z"
   id="path26"
   style="fill:#9479f4;fill-opacity:1;stroke:#9479f4;stroke-width:0.803485;stroke-dasharray:none;stroke-opacity:1"
   sodipodi:nodetypes="ssscccssssccssccsssssccs"
   transform="matrix(0.52079214,0,0,0.42486864,61.3395,73.616814)" /><path
   class="st0"
   d="M 219.015,179.971 H 107.999 L 67.975,21.616 c -0.983,-3.89 -4.472,-6.607 -8.484,-6.607 H 20.517 c -4.825,0 -8.751,3.926 -8.751,8.751 0,4.826 3.926,8.751 8.751,8.751 h 32.16 l 5.245,20.752 c 6.936906,27.445738 4.118,13.558 4.922,13.355 0.803,-0.203 5.658597,16.265009 -2.014,-14.091 L 55.299,30.643 C 55.131,29.977 54.532,29.511 53.845,29.511 H 20.517 c -3.171,0 -5.751,-2.58 -5.751,-5.751 0,-3.171 2.58,-5.751 5.751,-5.751 h 38.975 c 2.637,0 4.93,1.786 5.576,4.342 l 40.31,159.487 c 0.168,0.666 0.767,1.132 1.454,1.132 h 112.183 c 3.171,0 5.751,2.58 5.751,5.751 0,3.171 -2.58,5.751 -5.751,5.751 h -117.83 c -2.637,0 -4.929,-1.786 -5.575,-4.342 L 64.666,67.704 c -0.203,-0.803 -1.016,-1.289 -1.822,-1.086 -0.803,0.203 -1.29,1.018 -1.086,1.822 l 30.943,122.426 c 0.983,3.891 4.471,6.607 8.484,6.607 h 117.83 c 4.825,0 8.751,-3.926 8.751,-8.751 0,-4.825 -3.926,-8.751 -8.751,-8.751 z"
   id="path30"
   style="fill:#9479f4;fill-opacity:1;stroke:#9479f4;stroke-width:0.803485;stroke-dasharray:none;stroke-opacity:1"
   sodipodi:nodetypes="sccsssscccccsssssccssssscccccssss"
   transform="matrix(0.52079215,0,0,0.42486865,61.3395,73.616804)" />
	
	
	
	
	
	
	
	
	
	
	
	
	
	
</g><g
       id="g30"
       inkscape:label="CheckCircle"
       style="stroke:#9479f4;stroke-opacity:1"
       transform="matrix(0.45731837,0,0,0.42431678,39.147252,110.09182)"><path
         class="st0"
         d="m 108.55792,132.60741 c -6.924,0 -12.556958,5.95679 -12.556958,13.27879 0,7.32198 5.632958,13.27877 12.556958,13.27877 6.92396,0 12.55695,-5.95679 12.55695,-13.27877 0,-7.32172 -5.63299,-13.27879 -12.55695,-13.27879 z m 0,25.69595 c -6.47464,0 -11.741931,-5.57035 -11.741931,-12.41688 0,-6.84681 5.267561,-12.41689 11.741931,-12.41689 6.47434,0 11.7419,5.57036 11.7419,12.41689 0,6.84653 -5.26756,12.41688 -11.7419,12.41688 z"
         id="path50"
         style="fill:#9479f4;fill-opacity:1;stroke:#9479f4;stroke-width:0.264186;stroke-dasharray:none;stroke-opacity:1" /><path
         d="m 116.45984,141.83698 -1.59644,-1.87785 a 1.0642964,1.275289 0 0 0 -1.50265,0 l -6.16562,7.29703 -2.44055,-2.83752 a 1.0642964,1.275289 0 0 0 -1.50199,0.003 l -1.59645,1.91293 a 1.0642964,1.275289 0 0 0 0,1.80214 l 4.76406,5.73881 a 1.0642964,1.275289 0 0 0 1.50531,0 l 8.53766,-10.2326 a 1.0642964,1.275289 0 0 0 -0.003,-1.80693 z m -9.28997,11.13966 -4.76406,-5.73881 1.59644,-1.91293 a 0.03991111,0.04782334 0 0 1 0.005,0.007 l 2.81706,3.2751 a 0.53214821,0.63764449 0 0 0 0.74435,0 l 6.54808,-7.74499 1.59245,1.88105 z"
         id="path1-0"
         style="fill:#9479f4;fill-opacity:1;stroke:#9479f4;stroke-width:0.0264186;stroke-dasharray:none;stroke-opacity:1" /></g></g><style
     type="text/css"
     id="style1">
	.st0{fill:#3A312A;}
	.st1{fill:#D6DF58;}
	.st2{fill:#87796F;}
	.st3{fill:#B9C239;}
	.st4{fill:#EF6D7A;}
	.st5{fill:#FCE8CB;}
	.st6{fill:#D5DE58;}
	.st7{fill:#D34E5C;}
	.st8{fill:#695B51;}
	.st9{fill:#8AC6DD;}
	.st10{fill:#D7E057;}
	.st11{fill:#B8C136;}
	.st12{fill:#F16C7A;}
	.st13{fill:#8AC2D9;}
	.st14{fill:#F7E3C7;}
	.st15{fill:#8AC3DA;}
	.st16{fill:#6DA3BC;}
	.st17{fill:#6A5C52;}
	.st18{fill:#D5DC57;}
	.st19{fill:#F6E2C6;}
	.st20{fill:#DBC7AA;}
	.st21{fill:#CE4E61;}
	.st22{fill:#FAE6CA;}
	.st23{fill:#8AC5DC;}
	.st24{fill:#DDC9AC;}
	.st25{fill:#DECAAD;}
	.st26{fill:#6CA6BE;}
	.st27{fill:#F8E4C8;}
	.st28{fill:#89C4DB;}
	.st29{fill:#ED6E7A;}
	.st30{fill:#D24E5C;}
	.st31{fill:#6DA4BD;}
	.st32{fill:#EB6E7A;}
	.st33{fill:#68A7BB;}
	.st34{fill:#B9BC37;}
	.st35{fill:#CC4E61;}
	.st36{fill:#6CA8BF;}
	.st37{fill-rule:evenodd;clip-rule:evenodd;fill:#D5DE58;}
	.st38{fill:#EA6D7A;}
	.st39{fill:#F4E0C4;}
	.st40{fill-rule:evenodd;clip-rule:evenodd;fill:#D6DF58;}
	.st41{fill-rule:evenodd;clip-rule:evenodd;fill:#F16C7A;}
	.st42{fill:#F3DEC3;}
	.st43{fill-rule:evenodd;clip-rule:evenodd;fill:#FAE6CA;}
	.st44{fill:#F59689;}
	.st45{fill-rule:evenodd;clip-rule:evenodd;fill:#F8E4C8;}
	.st46{fill-rule:evenodd;clip-rule:evenodd;fill:#FCE8CB;}
	.st47{fill:#F5978A;}
	.st48{fill:#D4DB56;}
	.st49{fill-rule:evenodd;clip-rule:evenodd;fill:#D4DA55;}
	.st50{fill-rule:evenodd;clip-rule:evenodd;fill:#EB6E7A;}
	.st51{fill:#68A6B9;}
	.st52{fill-rule:evenodd;clip-rule:evenodd;fill:#D5DC57;}
	.st53{fill:#8AC1D8;}
	.st54{fill:#F5E1C5;}
	.st55{fill:#D4D752;}
	.st56{fill:#D3D751;}
	.st57{fill:#D4D853;}
	.st58{fill:#E96C7A;}
	.st59{fill:#D4DA55;}
	.st60{fill:#8BC0D7;}
	.st61{fill:#87796F;stroke:#3A312A;stroke-width:3;stroke-linecap:round;stroke-linejoin:round;stroke-miterlimit:10;}
</style><style
     type="text/css"
     id="style1-1">
	.st0{fill:#3A312A;}
	.st1{fill:#D6DF58;}
	.st2{fill:#87796F;}
	.st3{fill:#B9C239;}
	.st4{fill:#EF6D7A;}
	.st5{fill:#FCE8CB;}
	.st6{fill:#D5DE58;}
	.st7{fill:#D34E5C;}
	.st8{fill:#695B51;}
	.st9{fill:#8AC6DD;}
	.st10{fill:#D7E057;}
	.st11{fill:#B8C136;}
	.st12{fill:#F16C7A;}
	.st13{fill:#8AC2D9;}
	.st14{fill:#F7E3C7;}
	.st15{fill:#8AC3DA;}
	.st16{fill:#6DA3BC;}
	.st17{fill:#6A5C52;}
	.st18{fill:#D5DC57;}
	.st19{fill:#F6E2C6;}
	.st20{fill:#DBC7AA;}
	.st21{fill:#CE4E61;}
	.st22{fill:#FAE6CA;}
	.st23{fill:#8AC5DC;}
	.st24{fill:#DDC9AC;}
	.st25{fill:#DECAAD;}
	.st26{fill:#6CA6BE;}
	.st27{fill:#F8E4C8;}
	.st28{fill:#89C4DB;}
	.st29{fill:#ED6E7A;}
	.st30{fill:#D24E5C;}
	.st31{fill:#6DA4BD;}
	.st32{fill:#EB6E7A;}
	.st33{fill:#68A7BB;}
	.st34{fill:#B9BC37;}
	.st35{fill:#CC4E61;}
	.st36{fill:#6CA8BF;}
	.st37{fill-rule:evenodd;clip-rule:evenodd;fill:#D5DE58;}
	.st38{fill:#EA6D7A;}
	.st39{fill:#F4E0C4;}
	.st40{fill-rule:evenodd;clip-rule:evenodd;fill:#D6DF58;}
	.st41{fill-rule:evenodd;clip-rule:evenodd;fill:#F16C7A;}
	.st42{fill:#F3DEC3;}
	.st43{fill-rule:evenodd;clip-rule:evenodd;fill:#FAE6CA;}
	.st44{fill:#F59689;}
	.st45{fill-rule:evenodd;clip-rule:evenodd;fill:#F8E4C8;}
	.st46{fill-rule:evenodd;clip-rule:evenodd;fill:#FCE8CB;}
	.st47{fill:#F5978A;}
	.st48{fill:#D4DB56;}
	.st49{fill-rule:evenodd;clip-rule:evenodd;fill:#D4DA55;}
	.st50{fill-rule:evenodd;clip-rule:evenodd;fill:#EB6E7A;}
	.st51{fill:#68A6B9;}
	.st52{fill-rule:evenodd;clip-rule:evenodd;fill:#D5DC57;}
	.st53{fill:#8AC1D8;}
	.st54{fill:#F5E1C5;}
	.st55{fill:#D4D752;}
	.st56{fill:#D3D751;}
	.st57{fill:#D4D853;}
	.st58{fill:#E96C7A;}
	.st59{fill:#D4DA55;}
	.st60{fill:#8BC0D7;}
	.st61{fill:#87796F;stroke:#3A312A;stroke-width:3;stroke-linecap:round;stroke-linejoin:round;stroke-miterlimit:10;}
</style></svg>
